<?xml version="1.0" standalone="no"?>
<!DOCTYPE svg PUBLIC "-//W3C//DTD SVG 20010904//EN"
 "http://www.w3.org/TR/2001/REC-SVG-20010904/DTD/svg10.dtd">
<svg version="1.0" xmlns="http://www.w3.org/2000/svg"
 width="520.000000pt" height="520.000000pt" viewBox="0 0 520.000000 520.000000"
 preserveAspectRatio="xMidYMid meet">
<metadata>
This file is part of the JBZoo CCK package.
For the full copyright and license information, please view the LICENSE
file that was distributed with this source code.
</metadata>
<g transform="translate(0.000000,520.000000) scale(0.100000,-0.100000)"
fill="#999999" stroke="none">
<path d="M2223 4782 c-70 -17 -85 -32 -108 -115 -18 -63 -19 -64 -73 -85 l-54
-23 -31 31 c-17 16 -37 30 -44 30 -19 0 -105 -59 -159 -110 l-46 -43 7 -58 7
-58 -53 -60 c-50 -57 -54 -60 -93 -57 -22 2 -46 1 -53 -1 -16 -6 -63 -77 -99
-153 -34 -69 -33 -86 8 -121 18 -16 18 -19 -4 -87 -22 -69 -25 -72 -83 -104
-55 -31 -61 -37 -77 -88 -9 -30 -17 -81 -17 -114 l-1 -58 61 -59 c40 -39 58
-63 53 -71 -5 -7 -27 -40 -51 -72 -48 -65 -48 -65 -3 -161 27 -60 130 -175
210 -234 19 -14 67 -58 107 -98 58 -59 83 -76 132 -93 104 -35 113 -31 171 63
45 73 63 74 135 3 30 -30 62 -56 70 -60 15 -5 85 16 172 54 l51 22 13 89 12
89 49 31 c28 18 57 39 65 48 14 13 20 12 63 -12 61 -35 73 -34 111 6 46 47
134 159 142 180 4 10 -4 39 -20 71 l-26 54 29 48 c17 27 36 63 43 80 11 27 20
33 69 43 31 7 64 15 74 17 19 6 86 166 94 227 5 40 3 44 -50 97 -48 47 -56 60
-56 92 0 34 6 42 63 89 34 29 65 60 69 69 6 16 -10 106 -30 175 -5 17 -43 64
-84 105 -52 53 -73 81 -70 95 2 15 -26 50 -99 123 -99 100 -184 162 -224 162
-12 0 -39 -21 -66 -51 l-46 -52 -63 62 c-71 69 -80 71 -197 43z m117 -75 l0
-63 68 -11 c75 -12 65 -17 149 80 l33 37 47 -24 c27 -13 56 -33 66 -44 17 -18
16 -22 -19 -88 l-37 -69 37 -50 c21 -28 40 -52 42 -54 2 -2 33 9 69 25 52 21
68 25 74 15 14 -22 42 -164 34 -171 -4 -3 -36 -30 -71 -59 l-63 -54 3 -90 3
-90 53 -15 c64 -18 64 -21 16 -146 -35 -92 -37 -94 -72 -101 -102 -18 -109
-22 -135 -79 -14 -30 -37 -71 -50 -92 l-26 -37 30 -59 30 -60 -37 -46 c-49
-61 -126 -142 -136 -142 -5 0 -29 13 -54 29 l-46 28 -63 -46 c-34 -25 -70 -50
-79 -56 -12 -7 -20 -33 -28 -90 -6 -44 -15 -85 -20 -92 -16 -20 -180 -75 -188
-63 -4 7 -13 37 -20 67 l-12 55 -36 -6 c-21 -3 -55 -6 -77 -6 -39 0 -42 -3
-85 -71 l-45 -70 -43 5 c-34 5 -93 26 -110 41 -1 1 8 36 21 77 l24 75 -49 43
-49 42 -62 -41 -62 -41 -27 58 c-16 31 -28 65 -28 75 0 10 20 44 44 76 l45 58
-6 76 -6 77 -55 0 -55 0 6 64 c9 94 27 131 79 157 54 27 78 48 78 68 0 9 12
43 25 76 l25 59 -32 33 -32 33 25 52 c13 28 36 71 51 95 27 42 29 43 82 43 45
0 56 4 69 23 8 12 33 42 57 66 l43 44 -6 64 -5 63 52 43 c28 24 65 53 83 65
l32 22 32 -39 32 -40 76 39 76 38 22 74 22 75 53 11 c69 15 90 19 106 21 8 1
12 -18 12 -62z m515 -209 c-20 -4 -49 -15 -65 -23 -42 -22 -52 -19 -83 19
l-27 35 32 60 33 60 73 -72 73 -72 -36 -7z m199 -254 c9 -35 16 -70 16 -79 0
-9 -27 13 -62 51 -50 52 -65 77 -74 115 -7 27 -15 62 -19 77 -5 23 3 18 58
-37 58 -56 67 -71 81 -127z m-51 -50 l67 -72 -54 -46 c-30 -25 -58 -46 -63
-46 -18 0 -147 140 -138 149 31 29 111 91 116 89 3 -2 35 -35 72 -74z m0 -343
c26 -25 47 -53 47 -63 0 -20 -23 -89 -51 -155 l-20 -47 -73 73 -73 73 33 81
c18 45 35 90 38 101 6 18 7 18 29 0 12 -10 43 -39 70 -63z m-109 -210 l68 -69
-51 -11 c-29 -6 -60 -11 -69 -11 -10 0 -48 31 -86 69 l-69 69 44 10 c84 19 90
17 163 -57z m-140 -40 c58 -58 67 -72 61 -92 -9 -29 -67 -129 -75 -129 -3 0
-37 31 -75 70 l-69 70 23 37 c12 21 30 55 39 75 9 21 19 38 22 38 3 0 36 -31
74 -69z m-34 -293 l63 -68 -25 -37 c-14 -21 -51 -65 -81 -98 l-56 -60 -72 72
-73 72 35 38 c19 21 56 66 83 101 27 35 52 60 55 55 4 -4 36 -38 71 -75z
m-291 -134 l72 -67 -23 -24 c-13 -14 -42 -36 -66 -50 l-44 -26 -69 69 c-38 38
-68 72 -67 76 3 8 109 86 119 87 4 1 39 -29 78 -65z m-905 -63 l28 -29 -17
-54 c-10 -29 -20 -56 -24 -60 -4 -4 -33 19 -65 51 l-58 59 44 30 c23 17 48 31
54 32 5 0 23 -13 38 -29z m764 -51 l64 -71 -7 -69 c-4 -39 -10 -70 -14 -70 -3
0 -36 30 -73 68 l-66 67 11 73 c5 39 13 72 16 72 3 0 35 -32 69 -70z m-442
-102 c21 -24 52 -57 67 -74 l29 -32 -38 -56 c-20 -31 -39 -56 -43 -56 -9 0
-141 133 -141 142 0 12 72 118 79 118 4 0 25 -19 47 -42z m403 -62 l74 -74
-39 -20 c-22 -11 -62 -27 -90 -35 l-51 -15 -73 73 -72 73 53 16 c40 12 120 48
124 56 0 0 34 -33 74 -74z"/>
<path d="M2077 4176 c-102 -38 -200 -134 -259 -253 -35 -71 -42 -95 -46 -162
-7 -121 23 -186 102 -222 78 -35 166 -16 265 60 207 156 276 458 129 562 -40
29 -134 36 -191 15z m170 -36 c53 -32 86 -120 46 -120 -10 0 -47 -14 -82 -30
-131 -62 -250 -225 -269 -368 -5 -34 -11 -65 -14 -68 -12 -12 -76 25 -99 57
-21 30 -24 45 -24 129 0 87 3 101 33 163 92 188 296 307 409 237z m69 -164 c3
-8 -2 -43 -11 -77 -26 -103 -90 -203 -174 -272 -49 -40 -149 -83 -162 -70 -14
15 11 119 46 191 44 88 131 179 207 215 60 30 86 33 94 13z"/>
<path d="M3845 3849 c-33 -5 -93 -19 -134 -32 l-74 -22 -42 -125 -42 -125 -96
-47 -96 -47 -55 55 c-31 29 -63 54 -72 54 -25 0 -171 -102 -248 -173 l-68 -64
9 -103 9 -104 -51 -50 c-28 -28 -67 -71 -85 -96 -19 -25 -36 -47 -38 -50 -2
-3 -43 -4 -91 -2 l-88 3 -50 -78 c-53 -81 -143 -255 -143 -273 0 -6 22 -35 50
-64 l49 -52 -43 -124 -43 -125 -99 -57 -99 -57 -22 -78 c-13 -43 -26 -121 -29
-175 l-6 -96 101 -98 c55 -54 101 -106 101 -116 0 -15 -106 -164 -147 -206
-18 -18 -17 -28 11 -108 44 -131 69 -166 222 -319 80 -80 153 -147 163 -148 9
-1 75 -61 146 -132 93 -92 145 -136 185 -156 57 -28 200 -62 222 -54 7 3 47
57 88 120 l75 115 42 0 c41 0 48 -5 144 -100 56 -55 105 -100 108 -100 17 1
194 61 241 82 30 14 65 28 77 32 23 7 31 23 38 70 2 17 9 66 15 108 6 43 13
90 14 104 2 21 20 37 84 78 44 28 96 66 116 84 19 17 38 32 42 32 3 0 26 -13
51 -30 24 -16 46 -30 49 -30 3 0 19 -9 34 -20 39 -28 61 -17 139 66 70 76 211
259 211 275 0 5 -20 50 -45 100 l-46 90 54 87 c29 48 61 107 72 132 10 25 23
50 29 57 6 6 58 21 116 32 64 13 111 28 121 39 30 31 138 334 139 388 0 6 -43
54 -95 106 l-95 96 0 70 0 70 68 54 c63 50 117 96 149 127 15 15 14 33 -13
167 -30 148 -38 163 -177 303 -113 114 -127 132 -118 150 6 11 11 25 11 31 0
16 -309 321 -361 357 -73 50 -150 85 -173 79 -12 -3 -40 -27 -63 -53 -22 -26
-57 -66 -76 -88 l-35 -40 -108 108 c-119 118 -108 113 -229 96z m100 -129 l-7
-110 50 0 c48 0 131 -13 163 -25 12 -4 43 24 113 104 l97 111 67 -35 c37 -18
86 -51 109 -72 l42 -38 -65 -118 -65 -118 49 -57 c27 -31 57 -72 66 -90 l17
-32 37 16 c20 9 57 24 82 34 25 10 62 25 82 34 l37 16 20 -68 c16 -54 51 -212
51 -228 0 -2 -52 -47 -115 -99 l-115 -96 0 -118 c0 -65 -3 -132 -6 -149 l-6
-30 101 -32 c56 -17 101 -32 101 -33 0 -35 -110 -338 -130 -361 -5 -4 -59 -19
-120 -31 -61 -12 -115 -27 -119 -31 -4 -5 -20 -38 -35 -73 -15 -35 -51 -102
-82 -148 l-55 -85 51 -94 51 -94 -76 -100 c-43 -55 -105 -130 -139 -166 l-61
-66 -94 56 -94 57 -41 -39 c-23 -22 -80 -66 -128 -97 -49 -31 -88 -59 -88 -63
0 -4 -9 -65 -20 -137 -11 -71 -20 -133 -20 -138 0 -15 -306 -134 -317 -123 -2
2 -17 52 -33 111 -16 59 -30 109 -32 110 -2 2 -32 -3 -68 -11 -36 -7 -91 -14
-122 -14 l-58 0 -80 -120 c-69 -104 -84 -120 -103 -115 -12 3 -43 9 -69 15
-43 9 -158 54 -158 62 0 2 18 59 40 128 26 84 36 128 29 135 -5 5 -42 37 -82
71 l-72 61 -102 -69 -103 -68 -33 67 c-19 38 -42 92 -51 120 l-18 53 87 110
86 110 -12 38 c-7 20 -13 74 -13 120 l0 82 -93 0 -93 0 1 28 c1 64 18 181 33
234 l17 58 99 55 98 55 37 108 c20 59 42 121 49 137 13 29 12 31 -41 86 l-55
56 46 92 c26 50 67 123 92 162 l45 71 83 -7 83 -7 38 48 c21 27 67 78 102 114
l63 66 -10 99 -10 99 52 54 c29 30 92 80 140 113 l87 59 51 -65 51 -64 122 59
122 59 44 125 43 126 52 16 c49 15 181 41 220 43 17 1 18 -6 11 -109z m212
-96 c-3 -2 -181 19 -185 22 -2 1 -1 37 3 79 l8 77 88 -88 c49 -48 87 -89 86
-90z m699 -249 c-2 -5 -12 -9 -22 -8 -10 1 -68 -18 -128 -43 -92 -38 -111 -43
-118 -31 -4 8 -28 40 -53 70 -25 31 -45 59 -45 62 0 4 25 54 56 112 l57 105
128 -128 c71 -71 127 -133 125 -139z m264 -375 c23 -79 44 -189 38 -195 -6 -6
-209 210 -230 245 -9 14 -21 54 -27 90 -7 36 -19 88 -27 115 l-14 50 120 -120
c114 -113 122 -124 140 -185z m-86 -114 c64 -68 116 -129 116 -134 0 -5 -42
-44 -92 -86 l-93 -75 -128 127 c-70 70 -126 130 -125 133 6 12 183 158 194
158 6 1 63 -55 128 -123z m-94 -379 l0 -59 -40 35 c-28 24 -67 42 -131 61 -70
21 -89 31 -85 43 3 8 6 63 6 121 l0 107 125 -125 125 -125 0 -58z m149 -250
l43 -45 -25 -89 c-14 -48 -42 -128 -63 -177 l-37 -88 -128 129 -129 128 48
120 c27 66 55 144 61 173 l13 52 87 -79 c47 -44 106 -100 130 -124z m-236
-294 l127 -128 -107 -22 -108 -22 -128 128 -129 128 99 20 c54 12 102 21 108
22 5 1 67 -56 138 -126z m-232 -79 l127 -127 -25 -55 c-13 -31 -45 -87 -69
-125 l-46 -70 -113 113 c-62 62 -118 122 -125 134 -10 19 -4 34 45 116 31 52
58 105 61 118 4 12 9 22 12 22 4 0 64 -57 133 -126z m-75 -456 c61 -62 116
-121 123 -131 12 -15 5 -29 -58 -111 -39 -52 -100 -125 -135 -162 l-63 -68
-131 128 -132 129 70 74 c38 41 100 114 137 163 37 50 70 90 73 90 3 0 55 -51
116 -112z m-465 -245 l129 -127 -27 -28 c-29 -30 -173 -128 -189 -128 -10 0
-254 242 -254 252 0 3 33 26 73 51 39 25 85 59 101 76 17 17 31 31 33 31 2 0
62 -57 134 -127z m-1433 -149 c3 -13 -56 -214 -67 -226 -4 -4 -58 44 -121 107
-63 63 -112 116 -110 118 3 2 43 29 89 60 l84 56 61 -51 c33 -28 62 -57 64
-64z m1201 -40 c99 -100 122 -130 118 -147 -3 -12 -11 -66 -18 -119 -7 -54
-15 -98 -18 -98 -4 0 -61 55 -129 123 l-122 122 17 123 c9 67 20 122 24 122 3
0 61 -57 128 -126z m-589 -96 c39 -147 46 -163 77 -195 l34 -33 -39 0 c-38 0
-44 6 -149 123 l-111 122 72 11 c110 17 104 19 116 -28z m-101 -123 l121 -134
-62 -95 c-35 -53 -67 -96 -72 -96 -4 0 -64 55 -133 123 l-126 124 72 106 c39
59 73 107 75 107 1 0 58 -61 125 -135z m634 -63 l128 -128 -78 -32 c-43 -18
-111 -43 -151 -56 l-73 -25 -132 128 -132 129 75 23 c41 12 107 37 145 55 39
18 75 33 80 33 6 1 68 -57 138 -127z m-916 -50 c15 -11 73 -66 128 -122 l100
-101 -40 7 c-103 18 -156 50 -269 163 l-108 108 80 -17 c44 -10 93 -27 109
-38z"/>
<path d="M3553 2855 c-232 -63 -449 -293 -534 -565 -33 -106 -34 -270 -1 -352
47 -118 143 -182 272 -181 298 2 611 331 659 691 39 288 -144 475 -396 407z
m217 -40 c57 -28 109 -85 130 -142 11 -30 20 -60 20 -67 0 -8 -22 -18 -57 -25
-289 -57 -567 -394 -590 -717 l-6 -81 -39 9 c-157 35 -236 200 -199 414 48
273 284 552 524 619 65 19 171 14 217 -10z m154 -321 c-7 -253 -219 -564 -457
-668 -29 -13 -68 -26 -87 -30 -19 -3 -46 -8 -59 -11 l-24 -4 6 77 c8 101 12
119 46 206 69 173 179 309 330 408 74 49 172 86 220 84 25 -1 26 -3 25 -62z"/>
<path d="M1170 2809 c-25 -4 -65 -14 -90 -21 l-45 -14 -31 -88 -31 -89 -59
-28 c-32 -16 -60 -29 -60 -29 -1 0 -19 16 -40 35 -22 19 -46 35 -54 35 -20 -1
-109 -58 -159 -103 -64 -58 -70 -73 -62 -149 5 -49 4 -69 -5 -72 -7 -3 -34
-31 -61 -63 l-49 -59 -54 3 c-30 2 -60 0 -65 -4 -29 -22 -135 -219 -135 -250
0 -9 14 -31 31 -49 l31 -32 -28 -84 -28 -84 -70 -39 -70 -40 -18 -70 c-10 -38
-18 -95 -18 -125 0 -56 0 -56 70 -125 39 -38 70 -72 70 -76 0 -6 -65 -94 -87
-117 -31 -33 -22 -95 26 -190 18 -36 210 -233 234 -241 7 -2 55 -45 107 -97
100 -97 147 -125 242 -139 46 -7 47 -7 78 36 17 24 37 52 45 62 8 9 15 21 15
26 0 13 25 31 48 36 14 2 41 -17 91 -66 39 -38 79 -69 90 -69 23 0 150 44 203
71 41 21 40 20 63 179 6 41 11 48 55 74 27 16 60 40 74 53 31 29 35 29 80 -2
61 -42 82 -42 123 -4 50 48 173 208 173 225 0 8 -14 41 -30 74 l-30 60 35 54
c19 30 42 72 50 94 13 32 23 41 48 46 144 27 137 22 179 134 20 53 41 115 47
137 13 47 6 60 -72 138 -48 47 -53 56 -52 93 1 43 6 50 124 145 42 35 43 58 4
206 -15 58 -23 70 -104 151 -68 69 -87 93 -83 109 4 15 -6 34 -33 64 -45 50
-167 169 -204 197 -34 27 -119 72 -135 72 -12 0 -55 -42 -102 -100 l-21 -25
-73 73 c-79 78 -83 79 -178 61z m85 -93 l-6 -73 61 -6 c33 -4 71 -9 83 -12 18
-5 33 8 86 69 l63 75 47 -24 c25 -13 60 -35 76 -49 l30 -24 -45 -86 -45 -85
26 -28 c21 -23 41 -50 65 -91 0 -1 38 13 83 33 l82 35 9 -24 c5 -13 16 -59 25
-101 18 -89 22 -81 -75 -160 l-69 -56 -3 -104 -3 -105 68 -20 c37 -11 67 -24
67 -29 0 -17 -43 -146 -65 -197 -16 -36 -30 -53 -46 -57 -13 -3 -50 -11 -82
-17 -57 -11 -60 -13 -79 -58 -12 -26 -39 -75 -60 -109 l-40 -63 35 -65 35 -66
-68 -87 c-37 -48 -81 -99 -97 -114 l-29 -28 -57 35 c-32 19 -62 35 -67 35 -4
0 -27 -16 -51 -35 -23 -20 -61 -47 -85 -61 -46 -27 -44 -21 -65 -159 -5 -38
-15 -73 -22 -77 -21 -14 -161 -66 -186 -70 -23 -3 -26 2 -44 75 -16 64 -22 77
-36 72 -9 -4 -48 -9 -88 -12 l-72 -6 -55 -82 -55 -83 -43 9 c-34 7 -108 34
-126 45 -2 1 9 43 24 93 15 50 26 92 23 94 -2 2 -28 22 -57 46 l-53 43 -69
-46 c-38 -25 -71 -46 -74 -46 -5 0 -54 111 -61 141 -5 21 4 39 49 97 l55 71
-6 86 -6 85 -65 0 -65 0 6 63 c3 34 11 85 18 112 11 48 14 52 82 90 l70 40 34
99 34 99 -36 37 -37 37 27 54 c15 30 43 79 61 111 l34 56 58 -5 58 -5 39 48
c22 27 54 63 72 79 l32 30 -7 74 -8 73 67 57 c37 31 81 64 97 73 l30 18 36
-45 37 -45 86 43 85 43 27 85 c26 81 28 84 66 97 39 14 112 29 149 31 17 1 18
-5 11 -73z m552 -148 c46 -46 83 -86 83 -90 0 -3 -12 -6 -27 -6 -16 0 -54 -12
-86 -26 -32 -14 -59 -26 -60 -26 -2 0 -19 20 -40 44 l-37 45 38 70 c20 39 39
71 42 71 2 0 42 -37 87 -82z m266 -367 c9 -31 19 -73 23 -95 l7 -39 -79 83
c-76 79 -80 84 -96 158 -9 43 -17 81 -17 87 -1 5 32 -24 73 -64 63 -63 76 -82
89 -130z m17 -160 c0 -5 -30 -33 -66 -62 l-66 -52 -86 86 c-47 47 -84 88 -82
90 3 2 35 29 73 60 l67 56 80 -85 c44 -46 80 -89 80 -93z m-140 -175 l0 -40
-33 32 c-19 18 -55 39 -85 47 l-52 16 0 77 0 77 85 -85 c78 -78 85 -88 85
-124z m109 -271 c-11 -38 -32 -94 -45 -124 l-25 -55 -85 85 -85 85 41 102 c22
56 40 108 40 115 0 33 20 22 97 -56 l84 -83 -22 -69z m-164 -105 c43 -44 77
-81 74 -84 -2 -2 -36 -10 -76 -18 l-71 -15 -83 83 c-46 46 -81 85 -78 87 6 6
99 24 129 26 19 1 45 -19 105 -79z m-113 -203 c-18 -34 -41 -73 -51 -86 l-18
-24 -79 83 c-43 45 -79 88 -79 94 0 6 20 46 44 89 l44 79 86 -86 86 -86 -33
-63z m-100 -174 c43 -43 78 -84 78 -91 0 -16 -113 -163 -153 -201 l-26 -23
-90 83 -90 84 53 55 c29 30 71 81 95 113 24 31 46 57 49 57 4 0 42 -35 84 -77z
m-259 -266 c-10 -11 -44 -37 -77 -59 l-58 -40 -65 63 c-35 35 -73 76 -83 90
l-19 26 72 50 72 50 88 -80 c85 -78 87 -81 70 -100z m-1077 -14 c-3 -8 -13
-39 -22 -71 -9 -31 -19 -60 -23 -64 -4 -4 -40 25 -80 66 l-73 74 58 40 59 39
43 -35 c25 -21 41 -41 38 -49z m847 -20 l78 -81 -11 -84 c-7 -45 -13 -84 -14
-85 -1 -1 -39 35 -85 81 l-82 83 12 87 c7 47 15 85 18 84 4 -2 42 -40 84 -85z
m-493 -135 c102 -114 97 -97 48 -172 -24 -36 -45 -66 -48 -66 -3 0 -43 38 -89
84 l-83 83 48 72 c26 39 50 71 53 71 4 0 36 -33 71 -72z m488 -165 c-27 -13
-75 -30 -105 -39 l-56 -16 -85 85 -84 85 53 17 c29 10 76 28 104 41 l50 22 87
-86 87 -85 -51 -24z m-720 87 c41 -9 60 -22 127 -90 l78 -79 -42 10 c-66 15
-111 42 -176 108 -63 65 -63 67 13 51z"/>
<path d="M937 2096 c-243 -100 -415 -443 -318 -635 78 -153 277 -148 446 11
82 76 132 152 167 252 30 87 37 180 18 247 -37 131 -169 184 -313 125z m200
-23 c37 -17 77 -70 87 -115 6 -25 3 -27 -63 -47 -187 -57 -371 -299 -371 -488
0 -37 -3 -43 -20 -43 -12 0 -34 7 -49 15 -162 83 -118 385 84 578 107 104 241
144 332 100z m93 -211 c0 -59 -28 -151 -67 -222 -71 -127 -224 -250 -316 -254
-32 -1 -32 -1 -29 44 2 25 13 72 24 105 53 160 192 307 331 350 58 19 57 19
57 -23z"/>
</g>
</svg>
